<svg xmlns="http://www.w3.org/2000/svg" width="48" height="48" viewBox="0 0 48 48"><g transform="translate(-1756.067 -378.462)"><path d="M1756.072,478.465" transform="translate(-0.004 -72.574)" fill="#0032d8"/><path d="M1780.065,378.462v13.716l-12,6.857-12-6.858h0Z" transform="translate(0 0)" fill="#00c8f0"/><path d="M1768.067,435.321l12,6.857v13.714h0l-12-6.857-12-6.857V428.463Z" transform="translate(0 -36.287)" fill="#1563ff"/><path d="M1854.67,485.32v13.713l-12-6.856h0V478.463Z" transform="translate(-62.604 -72.572)" fill="#1563ff"/><path d="M1842.669,378.462v0h0v13.714h0l12,6.856v0h0l12,6.856V392.177Z" transform="translate(-62.604)" fill="#1563ff"/><path d="M1866.668,428.463v13.716l-12,6.857-12-6.858,12-6.858Z" transform="translate(-62.604 -36.287)" fill="#00c8f0"/><path d="M1854.67,485.32l-12,6.857h0V478.463Z" transform="translate(-62.604 -72.572)" fill="#0b96f8"/></g></svg>